<svg xmlns="http://www.w3.org/2000/svg" width="132" height="24" viewBox="0 0 132 24" fill="none">
<g clip-path="url(#clip0_703_2691)">
<path d="M2.24603 9.00152C2.22574 6.76997 3.02272 5.06879 4.20515 3.98489C5.40497 2.88941 7.0395 2.2866 8.93486 2.24024C9.01311 2.24024 9.09425 2.23734 9.1754 2.23734C11.1461 2.23734 12.8502 2.88361 14.108 4.10662C15.3194 5.28614 15.9888 6.90618 15.9888 8.66533C15.9888 11.0186 14.8992 12.0069 13.9863 13.0705C13.2443 13.9312 12.6647 14.9165 12.6618 15.6266V16.5569V17.7045V17.7422C12.6618 17.7422 12.6618 17.7712 12.6618 17.7828C12.6618 17.8031 12.6618 17.8233 12.6618 17.8465V17.9074C12.5952 19.8375 11.0302 21.3503 9.09715 21.3503C7.16412 21.3503 5.53248 19.7506 5.53248 17.7857V15.0383H3.29225V17.9885H3.29804C3.40527 21.0953 5.9643 23.5877 9.09715 23.5877C12.23 23.5877 14.8992 20.9852 14.8992 17.7857L14.9165 15.5512C15.018 15.3947 15.4672 14.8702 15.728 14.5369C16.6583 13.3487 18.2204 11.8504 18.2204 8.66533C18.2204 6.29758 17.3133 4.10951 15.6643 2.50396C13.9196 0.802775 11.5605 -0.0666567 8.874 0.00289781C6.43379 0.063758 4.29789 0.869431 2.69524 2.33297C1.10708 3.78493 0 5.53538 0 9.00731L2.24603 9.00152Z" fill="#262644"/>
<path d="M10.1034 19.3326C10.6545 18.7815 10.6545 17.8878 10.1034 17.3367C9.55218 16.7855 8.65855 16.7855 8.10737 17.3367C7.55619 17.8878 7.55619 18.7815 8.10737 19.3326C8.65855 19.8838 9.55218 19.8838 10.1034 19.3326Z" fill="#262644"/>
<path d="M13.9456 8.30887C13.9456 6.00777 12.1749 4.1269 9.1232 4.1269C6.55548 4.1269 4.43117 5.56436 4.3877 9.01601H6.71198C6.80182 7.11195 7.79587 6.47147 9.16957 6.47147C10.5433 6.47147 11.4272 7.17861 11.4272 8.39581C11.4272 9.4797 10.6534 10.3868 9.81295 11.3838C8.90584 12.4358 7.96106 13.7399 7.85383 15.6498H10.2969C10.4042 14.3137 11.007 13.3806 11.6503 12.5778C12.6908 11.2939 13.9514 10.3433 13.9514 8.30597L13.9456 8.30887Z" fill="#262644"/>
<path d="M31.2594 13.9718C31.2594 13.3023 30.4682 13.1545 29.5118 13.0994C27.4397 12.9487 26.0747 12.2387 26.0457 10.1666C25.9646 6.04545 33.3866 6.04545 33.3315 10.1666C32.4708 10.1666 31.8448 10.1666 31.0131 10.1666C31.0131 8.89718 28.4482 9.00731 28.3671 10.1376C28.312 10.8621 29.0221 11.0099 29.8828 11.1055C31.7782 11.3113 33.633 11.5953 33.633 13.9834C33.633 17.9943 25.8573 18.0639 25.9124 13.8616C26.7297 13.8616 27.4397 13.8616 28.2715 13.8616C28.2715 15.0759 31.2594 15.0904 31.2594 13.9718Z" fill="#262644"/>
<path d="M42.4606 17.0409C41.1623 17.0409 39.9538 16.5946 39.0554 15.786C38.041 14.8731 37.5049 13.5718 37.5049 12.0213C37.5049 8.57839 40.0726 7.01052 42.4606 7.01052C44.8487 7.01052 47.4164 8.57839 47.4164 12.0213C47.4164 15.4701 44.8487 17.0409 42.4606 17.0409ZM42.4664 9.49999C41.342 9.49999 40.1306 10.2883 40.1306 12.0213C40.1306 13.766 41.342 14.563 42.4664 14.563C43.5909 14.563 44.8023 13.7689 44.8023 12.0213C44.8023 11.2417 44.5502 10.5868 44.072 10.1289C43.6489 9.72314 43.0779 9.49999 42.4664 9.49999Z" fill="#262644"/>
<path d="M55.3917 16.9771C54.3802 16.9771 53.4354 16.6641 52.7283 16.0961C51.9516 15.473 51.543 14.6122 51.543 13.6066V7.17861H53.9919V13.566C53.9919 14.2906 54.6961 14.6673 55.3945 14.6673C56.093 14.6673 56.7827 14.3224 56.7827 13.566V7.17861H59.2316V13.6066C59.2316 15.2817 57.913 16.98 55.3945 16.98L55.3917 16.9771Z" fill="#262644"/>
<path d="M72.3086 16.8554H71.3552L71.3378 16.838L66.6197 12.2271V16.8409H63.9795V7.13514H64.9475L64.9649 7.15252L69.6946 11.7779V7.17861H72.3058V16.8583L72.3086 16.8554Z" fill="#262644"/>
<path d="M81.0086 7.23367H77.4062V16.7829H81.0086C87.2308 16.7568 87.2308 7.25975 81.0086 7.23367ZM82.675 13.7254C82.2722 14.2326 81.6954 14.5021 81.0086 14.5021H79.9073V9.51448H81.0086C82.5359 9.51448 83.2314 10.807 83.2314 12.0069C83.2314 12.6618 83.0344 13.2733 82.675 13.7254Z" fill="#262644"/>
<path d="M92.7978 16.8409H90.1982V7.17571H96.2611V9.47391H92.7949V11.4446H95.864V13.7428H92.7949V16.8409H92.7978Z" fill="#262644"/>
<path d="M109.725 16.8409H107.242L106.682 15.6411H102.99L102.431 16.8409H99.9502L99.956 16.4033L104.268 7.05109H105.393L105.407 7.08587L109.723 16.4149V16.8409H109.725ZM103.837 13.4356H105.842L104.828 11.1287L103.837 13.4356Z" fill="#262644"/>
<path d="M118.689 16.8409H113.73V14.5833H114.945V9.41884H113.826V7.17571H118.593V9.41884H117.475V14.5833H118.689V16.8409Z" fill="#262644"/>
<path d="M132.001 16.8409H129.181L127.543 14.0297H126.367V16.8409H123.808V7.17571H128.053C129.694 7.1815 130.937 8.05963 131.383 9.52607C131.832 10.9983 131.325 12.5894 130.149 13.4153L131.998 16.412V16.8409H132.001ZM126.367 11.746H128.056C128.682 11.746 129.013 11.1693 129.016 10.6013C129.016 10.0622 128.72 9.4826 128.053 9.47391C127.671 9.46521 127.271 9.46811 126.885 9.47101C126.712 9.47101 126.538 9.47101 126.367 9.47391V11.746Z" fill="#262644"/>
</g>
<defs>
<clipPath id="clip0_703_2691">
<rect width="132" height="23.5848" fill="white"/>
</clipPath>
</defs>
</svg>